<?xml version="1.0"?>
<svg xmlns="http://www.w3.org/2000/svg" xmlns:xlink="http://www.w3.org/1999/xlink" xmlns:svgjs="http://svgjs.com/svgjs" version="1.1" width="512" height="512" x="0" y="0" viewBox="0 0 512 512" style="enable-background:new 0 0 512 512" xml:space="preserve"><g><g xmlns="http://www.w3.org/2000/svg"><g><path d="m455.301 95.315c-3.469-4.297-9.765-4.969-14.062-1.5s-4.969 9.765-1.5 14.062c14.51 17.976 26.206 37.967 34.829 59.193-10.856-11.754-23.955-22.697-39.167-32.591-11.676-7.594-24.282-14.352-37.637-20.243-5.891-13.355-12.649-25.961-20.243-37.637-9.934-15.274-20.926-28.42-32.734-39.302 10.22 4.143 20.16 9.003 29.729 14.572 4.773 2.779 10.895 1.16 13.672-3.614 2.778-4.773 1.16-10.895-3.614-13.672-38.881-22.625-83.341-34.583-128.574-34.583-68.38 0-132.667 26.628-181.019 74.981-48.353 48.352-74.981 112.639-74.981 181.019s26.628 132.667 74.981 181.019c48.352 48.353 112.639 74.981 181.019 74.981s132.667-26.628 181.019-74.981c48.353-48.352 74.981-112.639 74.981-181.019 0-58.324-20.136-115.389-56.699-160.685zm-30.805 55.931c43.53 28.313 67.504 65.515 67.504 104.754s-23.974 76.441-67.504 104.754c-5.206 3.386-10.622 6.587-16.214 9.616 11.585-35.07 17.718-74.023 17.718-114.37s-6.133-79.3-17.718-114.37c5.592 3.028 11.008 6.23 16.214 9.616zm-168.496 340.754c-39.239 0-76.441-23.974-104.754-67.504-3.386-5.206-6.587-10.622-9.616-16.214 35.07 11.585 74.023 17.718 114.37 17.718s79.3-6.133 114.37-17.718c-3.028 5.592-6.23 11.008-9.616 16.214-28.313 43.53-65.515 67.504-104.754 67.504zm0-86c-45.526 0-89.032-8.188-126.522-23.478-15.29-37.49-23.478-80.996-23.478-126.522s8.188-89.032 23.478-126.522c37.49-15.29 80.996-23.478 126.522-23.478s89.032 8.188 126.522 23.478c15.29 37.49 23.478 80.996 23.478 126.522s-8.188 89.032-23.478 126.522c-37.49 15.29-80.996 23.478-126.522 23.478zm-152.282-35.63c-5.592-3.028-11.008-6.23-16.214-9.616-43.53-28.313-67.504-65.515-67.504-104.754s23.974-76.441 67.504-104.754c5.206-3.386 10.622-6.587 16.214-9.616-11.585 35.07-17.718 74.023-17.718 114.37s6.133 79.3 17.718 114.37zm257.036-282.866c3.386 5.206 6.587 10.622 9.616 16.214-35.07-11.585-74.023-17.718-114.37-17.718s-79.3 6.133-114.37 17.718c3.028-5.592 6.23-11.008 9.616-16.214 28.313-43.53 65.515-67.504 104.754-67.504s76.441 23.974 104.754 67.504zm-271.631 1.619c22.739-22.739 49.307-40.252 78.242-51.968-11.866 10.909-22.908 24.105-32.885 39.445-7.594 11.676-14.352 24.282-20.243 37.637-13.355 5.891-25.961 12.649-37.637 20.243-15.34 9.977-28.535 21.019-39.444 32.885 11.715-28.935 29.228-55.503 51.967-78.242zm0 333.754c-22.739-22.739-40.252-49.307-51.968-78.242 10.909 11.866 24.105 22.908 39.445 32.885 11.676 7.594 24.282 14.352 37.637 20.243 5.891 13.354 12.649 25.961 20.243 37.637 9.977 15.34 21.019 28.535 32.886 39.444-28.936-11.715-55.504-29.228-78.243-51.967zm333.754 0c-22.739 22.739-49.307 40.252-78.242 51.968 11.866-10.909 22.909-24.104 32.886-39.444 7.594-11.676 14.352-24.282 20.243-37.637 13.355-5.891 25.961-12.649 37.637-20.243 15.34-9.977 28.535-21.019 39.444-32.885-11.716 28.934-29.229 55.502-51.968 78.241z" fill="#ffffff" data-original="#000000" style=""/><path d="m161.721 202c-15.257 0-28.462 10.854-31.4 25.808-1.064 5.419 2.466 10.676 7.885 11.74 5.42 1.062 10.675-2.466 11.74-7.885 1.1-5.6 6.052-9.664 11.775-9.664 6.617 0 12 5.383 12 12s-5.383 12-12 12c-5.523 0-10 4.477-10 10s4.477 10 10 10c6.617 0 12 5.383 12 12s-5.383 12-12 12c-5.954 0-11.063-4.434-11.884-10.312-.077-.554-.116-1.122-.116-1.688 0-5.523-4.477-10-10-10s-10 4.477-10 10c0 1.487.104 2.983.308 4.451 2.192 15.706 15.816 27.55 31.692 27.55 17.645 0 32-14.355 32-32 0-8.517-3.351-16.26-8.795-22 5.444-5.74 8.795-13.483 8.795-22 0-17.645-14.355-32-32-32z" fill="#ffffff" data-original="#000000" style=""/><path d="m253.444 238.553c-1.323 0-2.628.078-3.915.219 7.553-12.123 15.889-18.597 16.117-18.772 4.404-3.302 5.312-9.547 2.024-13.968-3.296-4.431-9.56-5.352-13.992-2.056-1.247.927-30.413 23.076-35.51 64.677-.291 1.833-.447 3.71-.447 5.624 0 19.698 16.025 35.723 35.723 35.723s35.723-16.025 35.723-35.723-16.025-35.724-35.723-35.724zm0 51.447c-8.67 0-15.723-7.053-15.723-15.723s7.053-15.724 15.723-15.724 15.723 7.054 15.723 15.724-7.053 15.723-15.723 15.723z" fill="#ffffff" data-original="#000000" style=""/><path d="m347.83 202c-18.996 0-34.45 15.454-34.45 34.45v39.101c0 18.996 15.454 34.45 34.45 34.45 18.995 0 34.449-15.454 34.449-34.45v-39.101c0-18.996-15.454-34.45-34.449-34.45zm14.449 73.55c0 7.968-6.482 14.45-14.449 14.45-7.968 0-14.45-6.482-14.45-14.45v-39.1c0-7.968 6.482-14.45 14.45-14.45 7.967 0 14.449 6.482 14.449 14.45z" fill="#ffffff" data-original="#000000" style=""/><circle cx="416.25" cy="69.247" r="10" fill="#ffffff" data-original="#000000" style=""/></g></g></g></svg>
