<?xml version="1.0" encoding="utf-8"?>
<!-- Generator: Adobe Illustrator 25.1.0, SVG Export Plug-In . SVG Version: 6.00 Build 0)  -->
<svg version="1.1" id="Слой_1" xmlns="http://www.w3.org/2000/svg" xmlns:xlink="http://www.w3.org/1999/xlink" x="0px" y="0px"
	 viewBox="0 0 300 70" style="enable-background:new 0 0 300 70;" xml:space="preserve">
<style type="text/css">
	.st0{fill-rule:evenodd;clip-rule:evenodd;fill:#FFFFFF;}
</style>
<path class="st0" d="M295.69,55.24h-1.8v2.63h-0.84v-7.46h2.77c1.67,0,2.77,0.89,2.77,2.36v0.02
	C298.6,54.41,297.27,55.24,295.69,55.24z M297.75,52.82c0-1.07-0.79-1.62-1.99-1.62h-1.87v3.28h1.83c1.22,0,2.03-0.66,2.03-1.64
	V52.82z M286.84,38.74c-6.72,0-11.69-5.15-11.69-11.57v-0.06c0-6.43,5.04-11.64,11.75-11.64c6.72,0,11.69,5.15,11.69,11.57v0.06
	C298.6,33.53,293.56,38.74,286.84,38.74z M292.44,27.11c0-3.23-2.27-6.04-5.6-6.04c-3.3,0-5.5,2.75-5.5,5.98v0.06
	c0,3.23,2.27,6.04,5.57,6.04c3.33,0,5.53-2.75,5.53-5.98V27.11z M271.04,58c-2.25,0-3.76-1.78-3.76-3.83v-0.02
	c0-2.06,1.53-3.86,3.78-3.86c2.25,0,3.76,1.78,3.76,3.84v0.02C274.82,56.2,273.29,58,271.04,58z M273.95,54.15
	c0-1.69-1.22-3.08-2.91-3.08s-2.89,1.36-2.89,3.06v0.02c0,1.69,1.23,3.08,2.92,3.08c1.69,0,2.89-1.36,2.89-3.06V54.15z
	 M254.88,15.92h6.03v16.94h10.54v5.43h-16.57V15.92z M246.65,58c-2.32,0-3.76-1.7-3.76-3.83v-0.02c0-2.05,1.49-3.86,3.71-3.86
	c1.25,0,2.02,0.36,2.76,0.99l-0.54,0.64c-0.57-0.5-1.2-0.85-2.25-0.85c-1.64,0-2.81,1.4-2.81,3.06v0.02c0,1.78,1.13,3.1,2.93,3.1
	c0.85,0,1.63-0.33,2.13-0.75v-1.86h-2.25v-0.76h3.05v2.97C248.94,57.48,247.9,58,246.65,58z M232.61,15.92h6.03v16.94h10.54v5.43
	h-16.57V15.92z M225.06,50.42h0.84v6.68h4.16v0.78h-5V50.42z M208.76,15.92h17.51v5.27h-11.54v3.39h10.45v4.89h-10.45v3.55h11.69
	v5.28h-17.66V15.92z M200.72,51.76v6.11h-0.81v-7.46h0.78l4.66,5.98v-5.98h0.81v7.46h-0.67L200.72,51.76z M193.61,33.09
	c2.27,0,3.61-1.09,4.91-2.72l4.54,3.32c-2.05,2.91-4.82,5.05-9.64,5.05c-6.22,0-11.22-4.89-11.22-11.57v-0.06
	c0-6.52,4.88-11.64,11.47-11.64c4.45,0,7.31,1.92,9.23,4.67l-4.54,3.61c-1.24-1.6-2.67-2.62-4.76-2.62c-3.05,0-5.19,2.65-5.19,5.92
	v0.06C188.42,30.46,190.57,33.09,193.61,33.09z M179.46,50.42h0.83v7.46h-0.83V50.42z M169.79,15.92h6.06V38.3h-6.06V15.92z
	 M173.6,51.2h-2.48v6.68h-0.84V51.2h-2.48v-0.78h5.81V51.2z M157.38,38.3h-6.03V21.35h-6.53v-5.43h19.09v5.43h-6.53V38.3z
	 M149.55,56.39v-5.98h0.81v7.46h-0.67l-4.77-6.11v6.11h-0.81v-7.46h0.78L149.55,56.39z M124.48,26.02V38.3h-5.97V15.92h5.63
	l8.95,11.83V15.92h5.97V38.3h-5.29L124.48,26.02z M112.66,57.88h-0.84V51.2h-2.48v-0.78h5.81v0.78h-2.48V57.88z M100.5,38.74
	c-6.72,0-11.69-5.15-11.69-11.57v-0.06c0-6.43,5.04-11.64,11.75-11.64s11.69,5.15,11.69,11.57v0.06
	C112.26,33.53,107.22,38.74,100.5,38.74z M106.1,27.11c0-3.23-2.27-6.04-5.6-6.04c-3.3,0-5.5,2.75-5.5,5.98v0.06
	c0,3.23,2.27,6.04,5.57,6.04c3.33,0,5.53-2.75,5.53-5.98V27.11z M85.82,67.72l-0.46,0.27L46.84,1.84l0.46-0.27l12.16,20.88v-6.54
	h6.37l5.19,8.66l5.19-8.66h6.37V38.3h-6V25.44l-5.57,8.76H70.9l-5.53-8.7v7.09L85.82,67.72z M40.22,17.51L65.51,60.8L30.3,61.11
	l2.86-6.9l20.48-0.18l-13.3-22.77L23.55,61.17L2.1,61.36L33.77,6.29l3.97,6.8L14,54.38l5.56-0.05L40.22,17.51z M90.89,57.88h-0.83
	v-7.46h0.83V57.88z M102.72,56.39v-5.98h0.81v7.46h-0.67l-4.77-6.11v6.11h-0.81v-7.46h0.78L102.72,56.39z M126.28,51.19h-4.51v2.55
	h4.03v0.77h-4.03v2.61h4.56v0.77h-5.4v-7.46h5.35V51.19z M137.53,51.16c0.36,0.36,0.57,0.88,0.57,1.47v0.02
	c0,1.24-0.85,1.96-2.01,2.17l2.27,3.05h-1.02l-2.14-2.9h-2.11v2.9h-0.84v-7.46h3.18C136.33,50.42,137.06,50.7,137.53,51.16z
	 M133.08,51.2v3.03h2.27c1.11,0,1.9-0.58,1.9-1.53v-0.02c0-0.92-0.7-1.47-1.89-1.47H133.08z M160.21,50.36l3.37,7.51h-0.9
	l-0.87-1.97h-4.02l-0.88,1.97h-0.86l3.37-7.51H160.21z M161.48,55.15l-1.68-3.8l-1.69,3.8H161.48z M190.15,50.29
	c2.25,0,3.76,1.78,3.76,3.84v0.02c0,2.06-1.53,3.86-3.78,3.86s-3.76-1.78-3.76-3.83v-0.02C186.37,52.09,187.9,50.29,190.15,50.29z
	 M187.23,54.15c0,1.69,1.23,3.08,2.92,3.08c1.69,0,2.89-1.36,2.89-3.06v-0.02c0-1.69-1.23-3.08-2.92-3.08
	c-1.69,0-2.89,1.36-2.89,3.06V54.15z M216,50.36l3.37,7.51h-0.9l-0.87-1.97h-4.02l-0.88,1.97h-0.86l3.37-7.51H216z M217.28,55.15
	l-1.68-3.8l-1.69,3.8H217.28z M261.02,51.16c0.36,0.36,0.57,0.88,0.57,1.47v0.02c0,1.24-0.85,1.96-2.01,2.17l2.27,3.05h-1.02
	l-2.14-2.9h-2.11v2.9h-0.84v-7.46h3.18C259.82,50.42,260.55,50.7,261.02,51.16z M256.57,51.2v3.03h2.27c1.11,0,1.9-0.58,1.9-1.53
	v-0.02c0-0.92-0.7-1.47-1.89-1.47H256.57z M281.53,54.7c0,1.61,0.85,2.51,2.26,2.51c1.36,0,2.23-0.83,2.23-2.46v-4.33h0.83v4.27
	c0,2.17-1.24,3.3-3.08,3.3c-1.83,0-3.07-1.13-3.07-3.24v-4.33h0.83V54.7z"/>
</svg>
